<?xml version="1.0" encoding="UTF-8"?>
<svg width="137px" height="48px" viewBox="0 0 137 48" version="1.1" xmlns="http://www.w3.org/2000/svg" xmlns:xlink="http://www.w3.org/1999/xlink">
    <!-- Generator: Sketch 50.2 (55047) - http://www.bohemiancoding.com/sketch -->
    <title>Slice 3</title>
    <desc>Created with Sketch.</desc>
    <defs></defs>
    <g id="VectorDesign" stroke="none" stroke-width="1" fill="none" fill-rule="evenodd">
        <path d="M57.8931773,-4.07205629 C58.0539075,-4.63953219 58.2129976,-5.20700809 58.3507663,-5.79252514 C58.5278975,-6.54041245 58.2638408,-7.10788835 57.8308534,-7.46379087 C58.6705865,-6.90287538 59.5103196,-6.3419599 60.3500528,-5.78268451 C61.8179456,5.00427792 63.4531291,15.7682789 65.4343744,26.4568351 C65.0538704,25.2890812 64.6733663,24.1229674 64.2928622,22.9552136 C61.8261462,14.0248486 59.6546488,5.02231906 57.8931773,-4.07205629 Z M56.1940298,-20.7929141 C56.4121636,-20.4780142 56.6401381,-20.1729549 56.8615521,-19.8596951 C56.7369042,-19.3758645 56.8074286,-18.8231495 57.2469765,-18.2999564 L58.9674453,-16.2481866 C58.9707255,-16.2235851 58.9740057,-16.2006236 58.9772859,-16.1776621 C59.0658515,-15.4855384 59.1576973,-14.7917745 59.247903,-14.0996507 C58.1342726,-14.5867615 57.0222822,-15.0755124 55.9102919,-15.5626232 C55.8512482,-15.9480476 55.7840039,-16.3301918 55.7282404,-16.7156162 C55.8988112,-18.071982 56.0497007,-19.431628 56.1940298,-20.7929141 Z M57.6684831,-26.3528659 C57.7636091,-25.563976 57.8538148,-24.7718058 57.9522211,-23.9829159 C57.5389149,-24.36342 57.0288427,-24.4470653 56.5482923,-24.3584997 C56.6516188,-25.516413 56.7483849,-26.6743262 56.8336703,-27.8338796 C57.1075676,-27.3369281 57.3880254,-26.844897 57.6684831,-26.3528659 Z M85.9045095,87.3981705 C76.2131363,57.7090122 68.8621913,27.3736531 63.9057977,-3.40945437 C66.328231,-1.79559227 68.7441038,-0.176809862 71.1665371,1.43541213 C73.9497931,3.83980425 76.7035274,6.28519895 79.3932975,8.81423895 C80.7234217,10.063998 82.9818446,8.45997654 81.9781011,6.81823267 C81.771448,6.4787312 81.5680751,6.13758961 81.3597819,5.79808814 C81.9256177,5.34213929 82.2011552,4.57293063 81.692723,3.76927978 C80.4249228,1.76343289 79.1604028,-0.242414013 77.8926026,-2.24662081 C78.6568909,-2.68944882 79.1341611,-3.62102776 78.5486441,-4.54440618 C72.7164351,-13.7388279 66.5529252,-22.6937944 60.0712351,-31.4322672 C60.0515539,-31.5962776 60.0318726,-31.7586479 60.0105513,-31.9226582 C59.9137852,-32.724669 59.3151473,-33.1707772 58.678787,-33.2954251 C57.8259331,-34.432017 56.9911203,-35.5800896 56.1267856,-36.708481 C54.9934739,-38.1878546 52.6530458,-37.2103528 52.9171025,-35.6637349 C52.5825214,-35.5522079 52.308624,-35.2996319 52.1380532,-34.8945263 C51.4262482,-34.8682846 50.7521656,-34.3975748 50.7505255,-33.4397542 C50.7488854,-31.8176916 50.7078828,-30.2021894 50.6636,-28.5866872 C50.2289725,-26.57592 49.8123861,-24.5602325 49.4122008,-22.5445449 C48.8840874,-23.3711572 47.3883128,-22.8955271 47.7261741,-21.8278196 C48.0476345,-20.8109553 48.3707349,-19.795731 48.6921952,-18.7805068 C47.0078087,-9.84194132 45.6481627,-0.852532611 44.6148973,8.19099952 C44.0375808,11.5220503 43.4651846,14.853101 42.887868,18.1825116 C42.7090967,19.2075765 43.3880997,19.9259419 44.1605886,20.1145539 C44.8904347,20.4163329 45.826934,20.2933252 46.2992839,19.4978748 C48.9316504,15.0597541 51.2983201,10.5183068 53.4566967,5.87681312 C54.1717819,4.75334204 54.8261833,3.60690951 55.4117003,2.42603481 C56.1661481,4.81238578 56.9222359,7.19873675 57.6799638,9.58508772 C62.1361258,28.4610419 68.1421857,46.9843738 74.6468372,65.3223739 C76.9561033,73.0226611 79.5737089,80.6442232 82.59314,88.1526182 C82.8079936,88.6872921 83.2377007,88.9562691 83.6920095,89.0448347 C84.7613571,89.6172309 86.3817797,88.8627832 85.9045095,87.3981705 Z" id="Fill-51" fill="#000105" transform="translate(64.424668, 25.898422) rotate(290.000000) translate(-64.424668, -25.898422) "></path>
    </g>
</svg>