<?xml version="1.0" encoding="UTF-8"?>
<svg width="714px" height="252px" viewBox="0 0 714 252" version="1.1" xmlns="http://www.w3.org/2000/svg" xmlns:xlink="http://www.w3.org/1999/xlink">
    <!-- Generator: Sketch 50.2 (55047) - http://www.bohemiancoding.com/sketch -->
    <title>Slice</title>
    <desc>Created with Sketch.</desc>
    <defs></defs>
    <g id="VectorDesign" stroke="none" stroke-width="1" fill="none" fill-rule="evenodd" opacity="0.327734375">
        <g id="Group">
            <g id="Desktop" transform="translate(78.000000, 0.000000)" stroke="#979797" stroke-width="4">
                <path d="M328,75 L328,15.3833112 C328,10.8083409 327.646003,8.9751953 326.633577,7.0821235 C325.774134,5.47510489 324.524895,4.22586558 322.917877,3.36642262 C321.024805,2.35399674 319.191659,2 314.616689,2 L15.3833112,2 C10.8083409,2 8.9751953,2.35399674 7.0821235,3.36642262 C5.47510489,4.22586558 4.22586558,5.47510489 3.36642262,7.0821235 C2.35399674,8.9751953 2,10.8083409 2,15.3833112 L2,196.616689 C2,201.191659 2.35399674,203.024805 3.36642262,204.917877 C4.22586558,206.524895 5.47510489,207.774134 7.0821235,208.633577 C8.9751953,209.646003 10.8083409,210 15.3833112,210 L275,210 L275,89 C275,81.2680135 281.268014,75 289,75 L328,75 Z" id="Combined-Shape"></path>
                <path d="M304,75 L304,39.3833112 C304,34.8083409 303.646003,32.9751953 302.633577,31.0821235 C301.774134,29.4751049 300.524895,28.2258656 298.917877,27.3664226 C297.024805,26.3539967 295.191659,26 290.616689,26 L39.3833112,26 C34.8083409,26 32.9751953,26.3539967 31.0821235,27.3664226 C29.4751049,28.2258656 28.2258656,29.4751049 27.3664226,31.0821235 C26.3539967,32.9751953 26,34.8083409 26,39.3833112 L26,154.616689 C26,159.191659 26.3539967,161.024805 27.3664226,162.917877 C28.2258656,164.524895 29.4751049,165.774134 31.0821235,166.633577 C32.9751953,167.646003 34.8083409,168 39.3833112,168 L275,168 L275,89 C275,81.2680135 281.268014,75 289,75 L304,75 Z" id="Combined-Shape"></path>
                <circle id="Oval" cx="165" cy="189" r="10"></circle>
                <path d="M204.885257,237.011208 L192.707807,210 L139.237966,210 L125.775038,237.018514 C126.280123,237.006112 126.815095,237 127.383311,237 L203.616689,237 C204.059327,237 204.481651,237.003712 204.885257,237.011208 Z" id="Combined-Shape"></path>
                <path d="M216.999136,250 C216.979357,245.704144 216.617243,243.921419 215.633577,242.082123 C214.774134,240.475105 213.524895,239.225866 211.917877,238.366423 C210.024805,237.353997 208.191659,237 203.616689,237 L127.383311,237 C122.808341,237 120.975195,237.353997 119.082123,238.366423 C117.475105,239.225866 116.225866,240.475105 115.366423,242.082123 C114.382757,243.921419 114.020643,245.704144 114.000864,250 L216.999136,250 Z" id="Combined-Shape-Copy"></path>
            </g>
            <g id="Phone" transform="translate(652.000000, 159.000000)" stroke="#979797" stroke-width="4">
                <rect id="Rectangle-4" x="2" y="2" width="55" height="89" rx="12"></rect>
                <path d="M2,18.5 L56,18.5" id="Line" stroke-linecap="square"></path>
                <path d="M2,72.5 L56,72.5" id="Line-Copy" stroke-linecap="square"></path>
                <circle id="Oval" cx="29.5" cy="82.5" r="4.5"></circle>
                <path d="M8.375,30 L28.625,30" id="Line-2" stroke-linecap="square"></path>
                <path d="M9,36.5 L15,36.5" id="Line-2-Copy" stroke-linecap="square"></path>
                <path d="M9,44.5 L22,44.5" id="Line-2-Copy-2" stroke-linecap="square"></path>
            </g>
            <g id="Semi" transform="translate(458.000000, 126.000000)">
                <path d="M22.6015625,30.734375 L20,30.734375 L20,23.796875 L26.9375,23.796875 L26.9375,29.0234375 C26.9375,34.7734662 24.6250231,37.8515605 20,38.2578125 L20,35.65625 C21.7343837,35.1562475 22.6015625,33.757824 22.6015625,31.4609375 L22.6015625,30.734375 Z M20,16.9375 L20,10 L26.9375,10 L26.9375,16.9375 L20,16.9375 Z" id=";" fill="#979797"></path>
                <circle id="Oval-2" stroke="#979797" stroke-width="4" cx="23.5" cy="23.5" r="23.5"></circle>
            </g>
            <path d="M228,92.6640625 L229.148438,92.6640625 C231.304698,92.6640625 232.382812,91.6484477 232.382812,89.6171875 C232.382812,88.523432 232.234376,87.4062557 231.9375,86.265625 L231.398438,84.109375 C231.054686,82.718743 230.882812,81.3906313 230.882812,80.125 C230.882812,77.9062389 231.742179,76.1640688 233.460938,74.8984375 C235.179696,73.6328062 237.554672,73 240.585938,73 L240.585938,77.0546875 C237.992175,77.2109383 236.695312,78.2109283 236.695312,80.0546875 C236.695312,80.5078148 236.773437,81.2109327 236.929688,82.1640625 L237.28125,84.15625 C237.453126,85.2343804 237.539062,86.3437443 237.539062,87.484375 C237.539062,90.687516 236.000015,93.1796786 232.921875,94.9609375 C236.000015,96.7734466 237.539062,99.2734216 237.539062,102.460938 C237.539062,103.601568 237.453126,104.710932 237.28125,105.789062 L236.929688,107.78125 C236.773437,108.73438 236.695312,109.437498 236.695312,109.890625 C236.695312,111.734384 237.992175,112.734374 240.585938,112.890625 L240.585938,116.945312 C237.554672,116.945312 235.179696,116.312506 233.460938,115.046875 C231.742179,113.781244 230.882812,112.039074 230.882812,109.820312 C230.882812,108.554681 231.054686,107.226569 231.398438,105.835938 L231.9375,103.679688 C232.234376,102.539057 232.382812,101.414068 232.382812,100.304688 C232.382812,98.2890524 231.304698,97.28125 229.148438,97.28125 L228,97.28125 L228,92.6640625 Z M258.375,92.6640625 L258.375,97.28125 L257.226562,97.28125 C255.070302,97.28125 253.992188,98.2890524 253.992188,100.304688 C253.992188,101.414068 254.140624,102.539057 254.4375,103.679688 L254.976562,105.835938 C255.320314,107.226569 255.492188,108.554681 255.492188,109.820312 C255.492188,112.039074 254.632821,113.781244 252.914062,115.046875 C251.195304,116.312506 248.820328,116.945312 245.789062,116.945312 L245.789062,112.890625 C248.382825,112.734374 249.679688,111.734384 249.679688,109.890625 C249.679688,109.437498 249.601563,108.73438 249.445312,107.78125 L249.09375,105.789062 C248.921874,104.710932 248.835938,103.601568 248.835938,102.460938 C248.835938,99.2734216 250.374985,96.7734466 253.453125,94.9609375 C250.374985,93.1796786 248.835938,90.687516 248.835938,87.484375 C248.835938,86.3437443 248.921874,85.2343804 249.09375,84.15625 L249.445312,82.1640625 C249.601563,81.2109327 249.679688,80.5078148 249.679688,80.0546875 C249.679688,78.2109283 248.382825,77.2109383 245.789062,77.0546875 L245.789062,73 C248.820328,73 251.195304,73.6328062 252.914062,74.8984375 C254.632821,76.1640688 255.492188,77.9062389 255.492188,80.125 C255.492188,81.3906313 255.320314,82.718743 254.976562,84.109375 L254.4375,86.265625 C254.140624,87.4062557 253.992188,88.523432 253.992188,89.6171875 C253.992188,91.6484477 255.070302,92.6640625 257.226562,92.6640625 L258.375,92.6640625 Z" id="{}" fill="#979797"></path>
            <g id="Covfefe" transform="translate(0.000000, 138.000000)" stroke="#979797" stroke-width="4">
                <path d="M5.15947401,39 L10.7653464,112 L46.2346536,112 L51.840526,39 L5.15947401,39 Z" id="Rectangle-5"></path>
                <rect id="Rectangle-6" x="2" y="33" width="54" height="5"></rect>
                <rect id="Rectangle-7" x="12" y="25" width="32" height="6"></rect>
                <path d="M6,57.5 L51,57.5" id="Path-2"></path>
                <path d="M9,86.5 L48,86.5" id="Path-3"></path>
                <path d="M46.9317835,19 C52.2200362,19 52.0733372,13.0241544 46.9317835,13.0241544 C41.7902299,13.0241544 41.5895413,5.96857315 46.9317835,5.96857315 C52.2740258,5.96857315 50.8190909,0 50.8190909,0" id="Path-4" transform="translate(47.000000, 9.500000) rotate(-180.000000) translate(-47.000000, -9.500000) "></path>
            </g>
            <g id="Lappy" transform="translate(329.000000, 73.000000)" stroke="#979797" stroke-width="4">
                <path d="M300,159 L2,159 L2,168 C2,172.970563 6.02943725,177 11,177 L291,177 C295.970563,177 300,172.970563 300,168 L300,159 Z" id="Combined-Shape"></path>
                <path d="M185,159 L118,159 L118,161 C118,163.761424 120.238576,166 123,166 L180,166 C182.761424,166 185,163.761424 185,161 L185,159 Z" id="Combined-Shape"></path>
                <path d="M280,158 L280,12 C280,6.4771525 275.522847,2 270,2 L34,2 C28.4771525,2 24,6.4771525 24,12 L24,158 L280,158 Z" id="Combined-Shape"></path>
                <rect id="Rectangle-14" x="38" y="16" width="227" height="129" rx="12"></rect>
            </g>
        </g>
    </g>
</svg>